<svg width="82" height="164" viewBox="0 0 82 164" fill="none" xmlns="http://www.w3.org/2000/svg">
<path d="M70.1176 0.375H12.3687C5.70533 0.375 0.316406 5.6911 0.316406 12.3544V151.083C0.316406 157.783 5.70533 163.499 12.3687 163.499H70.0812C76.7445 163.499 81.8421 157.783 81.8421 151.083V12.3544C81.8785 5.6911 76.7809 0.375 70.1176 0.375ZM35.6357 8.74968H46.5592C47.3603 8.74968 48.0157 9.40509 48.0157 10.2062C48.0157 11.0072 47.3603 11.6626 46.5592 11.6626H35.6357C34.8347 11.6626 34.1793 11.0072 34.1793 10.2062C34.1793 9.40509 34.8347 8.74968 35.6357 8.74968ZM41.2795 158.038C37.784 158.038 34.9439 155.197 34.9439 151.702C34.9439 148.206 37.784 145.366 41.2795 145.366C44.7751 145.366 47.6152 148.206 47.6152 151.702C47.6152 155.197 44.7751 158.038 41.2795 158.038ZM75.3245 140.196H6.8705C6.46998 140.196 6.14227 139.868 6.14227 139.468V19.6732C6.14227 19.2727 6.46998 18.945 6.8705 18.945H75.3245C75.725 18.945 76.0527 19.2727 76.0527 19.6732V139.468C76.0527 139.868 75.725 140.196 75.3245 140.196Z" fill="#E9E9E9"/>
<path d="M59.0493 100.149H16.1252C14.4579 100.149 13.1016 98.7927 13.1016 97.1255V78.4143C13.1016 77.5823 13.4495 76.7787 14.0561 76.2094L22.3315 68.6547C22.8943 68.1267 23.6291 67.8359 24.4006 67.8359H46.6644C47.1862 67.8359 47.6092 68.2589 47.6092 68.7808C47.6092 69.3026 47.1862 69.7256 46.6644 69.7256H24.4006C24.1113 69.7256 23.8357 69.8347 23.6247 70.0327L15.3492 77.5875C15.1216 77.801 14.9913 78.1023 14.9913 78.4143V97.1255C14.9913 97.7507 15.4999 98.2594 16.1252 98.2594H59.0493C59.6745 98.2594 60.1832 97.7507 60.1832 97.1255V83.9925C60.1832 83.4707 60.6061 83.0476 61.128 83.0476C61.6498 83.0476 62.0729 83.4707 62.0729 83.9925V97.1255C62.0729 98.7927 60.7165 100.149 59.0493 100.149Z" fill="#07B4C9"/>
<path d="M23.9746 90.3344L25.8379 88.1071C26.9301 89.1566 28.2793 89.8419 29.6928 89.8419C31.3419 89.8419 32.3698 88.8567 32.3698 87.5931C32.3698 86.3082 31.3204 85.4516 29.7141 85.4516C28.6005 85.4516 27.6582 85.8157 26.8659 86.4153L24.7456 85.5586L24.9597 77.6133H34.7041V80.4616H27.8724L27.7867 83.7168C28.5149 83.2029 29.4571 82.8173 30.6565 82.8173C33.2693 82.8173 35.5179 84.4879 35.5179 87.4861C35.5179 90.6128 33.1835 92.6046 29.6714 92.6046C27.2085 92.6046 25.3453 91.705 23.9746 90.3344Z" fill="#0082CA"/>
<path d="M44.6407 84.0587H51.1512V90.1195C49.6734 91.6614 47.4033 92.5824 45.1975 92.5824C40.9356 92.5824 37.3164 89.0916 37.3164 84.9582C37.3164 80.8249 40.9356 77.3555 45.1975 77.3555C47.4033 77.3555 49.6734 78.2765 51.1512 79.8184L48.8597 81.8743C47.9816 80.8678 46.5467 80.2252 45.1975 80.2252C42.6918 80.2252 40.5717 82.4097 40.5717 84.9582C40.5717 87.5282 42.6918 89.7126 45.1975 89.7126C46.204 89.7126 47.2321 89.3699 48.0673 88.7703V86.5216H44.6407V84.0587Z" fill="#0082CA"/>
<path d="M58.6328 79.7049C58.35 79.7049 58.0704 79.5785 57.8843 79.3374C56.9473 78.1239 55.8959 76.9684 54.7595 75.9031C53.5467 74.7662 52.2397 73.7343 50.8747 72.8358C50.4388 72.5489 50.318 71.963 50.605 71.5271C50.8918 71.0912 51.4777 70.9704 51.9136 71.2573C53.3683 72.2148 54.7607 73.314 56.0519 74.5245C57.2619 75.6587 58.3815 76.8894 59.38 78.1826C59.699 78.5956 59.6225 79.1889 59.2096 79.5078C59.0376 79.6406 58.8343 79.7049 58.6328 79.7049Z" fill="#07B4C9"/>
<path d="M63.0745 77.2812C62.7917 77.2812 62.5122 77.1548 62.3261 76.9137C61.0357 75.2427 59.5881 73.6516 58.0231 72.1846C56.3536 70.6192 54.5536 69.1981 52.6735 67.9607C52.2377 67.6737 52.1169 67.0879 52.4037 66.6519C52.6907 66.2162 53.2766 66.0954 53.7125 66.3822C55.6823 67.6788 57.5676 69.1672 59.3157 70.806C60.9538 72.3418 62.47 74.0081 63.8218 75.7589C64.1407 76.1719 64.0642 76.7652 63.6512 77.0841C63.4793 77.2169 63.2762 77.2812 63.0745 77.2812Z" fill="#07B4C9"/>
<path d="M66.9764 75.1108C66.6935 75.1108 66.414 74.9845 66.2278 74.7434C64.7071 72.7738 63.0008 70.8985 61.1566 69.1696C59.1886 67.3247 57.0673 65.6497 54.8512 64.1912C54.4154 63.9043 54.2946 63.3184 54.5815 62.8825C54.8684 62.4466 55.4544 62.3259 55.8902 62.6128C58.1959 64.1303 60.4026 65.8726 62.449 67.7909C64.3666 69.5886 66.1413 71.5392 67.7236 73.5885C68.0425 74.0015 67.9661 74.5949 67.5532 74.9138C67.3812 75.0465 67.1779 75.1108 66.9764 75.1108Z" fill="#07B4C9"/>
<path d="M71.9119 73.6465C71.6292 73.6465 71.3495 73.5201 71.1634 73.279C69.2398 70.7878 67.0818 68.4161 64.7495 66.2296C62.2607 63.8964 59.5777 61.778 56.775 59.9334C56.3392 59.6465 56.2184 59.0606 56.5053 58.6247C56.7922 58.1888 57.3781 58.068 57.814 58.3549C60.7063 60.2587 63.4747 62.4443 66.042 64.8511C68.4475 67.1063 70.674 69.5533 72.6591 72.1242C72.9779 72.5372 72.9016 73.1305 72.4888 73.4495C72.3168 73.5822 72.1134 73.6465 71.9119 73.6465Z" fill="#07B4C9"/>
</svg>
