<svg width="170" height="56" viewBox="0 0 170 56" fill="none" xmlns="http://www.w3.org/2000/svg">
<g clip-path="url(#clip0_1842_410)">
<path d="M163.569 7.44899V0L170 3.72449L163.569 7.44899ZM131.428 3.72449V18.6225L144.284 11.1735L131.428 3.72449ZM115.205 56V40.5174L128.564 48.2617L115.205 56ZM61.5982 26.9514C61.8924 25.3543 62.9552 24.5648 64.5223 24.5648C66.0054 24.5648 66.7259 25.6677 66.7499 26.9514H61.5982ZM64.3542 22.2445C60.9618 22.2445 58.6261 24.6311 58.6261 28.0362C58.6261 31.4412 61.0218 33.7434 64.7745 33.7434C66.1074 33.7434 67.7826 33.424 68.9715 32.7852L67.9988 30.7C67.1942 31.1279 65.8553 31.4051 64.8405 31.4051C63.2914 31.4051 61.7663 30.6156 61.6402 28.8739H69.4458C69.4458 28.8739 69.5119 28.3616 69.5119 27.7469C69.5119 24.4021 67.5845 22.2566 64.3602 22.2566M71.6975 19.7736V30.7241C71.6975 33.2372 72.9464 33.7495 74.2853 33.7495C74.9458 33.7495 75.6663 33.641 76.2367 33.5325V31.3388C76.0266 31.381 75.7083 31.4232 75.5582 31.4232C74.9218 31.4232 74.5615 31.1459 74.5615 30.5312V18.1644L71.6975 19.7675V19.7736ZM80.4758 26.9574C80.77 25.3603 81.8327 24.5708 83.3998 24.5708C84.8829 24.5708 85.6034 25.6737 85.6274 26.9574H80.4758ZM83.2317 22.2505C79.8393 22.2505 77.5036 24.6371 77.5036 28.0422C77.5036 31.4473 79.8993 33.7495 83.652 33.7495C84.985 33.7495 86.6602 33.43 87.849 32.7912L86.8764 30.706C86.0718 31.1339 84.7328 31.4111 83.7181 31.4111C82.169 31.4111 80.6439 30.6216 80.5178 28.8799H88.3234C88.3234 28.8799 88.3894 28.3676 88.3894 27.7529C88.3894 24.4081 86.456 22.2626 83.2377 22.2626M32.7295 19.7796V33.5446H35.5935V30.8868L36.6563 29.6935L39.2862 33.5446H42.4865L38.3075 27.6685L42.6786 22.4735H39.2622L35.5815 27.3491V18.1644L32.7295 19.7796ZM90.4729 19.7796V33.5446H93.337V30.8868L94.3997 29.6935L97.0296 33.5446H100.23L96.0509 27.6685L100.422 22.4735H97.0116L93.331 27.3491V18.1644L90.4789 19.7796H90.4729ZM115.217 22.4735V33.5446H118.081V27.1382C118.081 25.7099 118.717 24.5829 120.14 24.5829C121.431 24.5829 121.899 25.5592 121.899 26.5415V33.5446H124.764V27.1563C124.764 25.7099 125.382 24.5829 126.799 24.5829C128.132 24.5829 128.582 25.5592 128.582 26.6922V33.5446H131.446V26.879C131.446 23.6668 129.771 22.2626 127.502 22.2626C125.676 22.2626 124.493 23.1545 123.941 24.2454C123.431 23.034 122.2 22.2626 120.909 22.2626C119.618 22.2626 118.321 22.9858 117.859 23.944L117.39 22.4735H115.229H115.217ZM113.175 27.994C113.175 31.4653 110.371 34.2738 106.919 34.2738C103.466 34.2738 100.662 31.4593 100.662 27.994C100.662 24.5286 103.46 21.7142 106.919 21.7142C110.377 21.7142 113.175 24.5286 113.175 27.994ZM110.473 27.994C110.473 26.0232 108.882 24.4262 106.919 24.4262C104.955 24.4262 103.364 26.0232 103.364 27.994C103.364 29.9647 104.955 31.5618 106.919 31.5618C108.882 31.5618 110.473 29.9647 110.473 27.994ZM49.4815 18.6466V21.1356H53.2222V33.5446H56.1883V21.1356H59.929V18.6466H49.4815ZM24.0953 22.4796V33.5506H26.9593V28.5062C26.9593 26.1197 28.2923 25.1855 30.1596 25.1855H30.5199V22.3771C28.5685 22.3771 27.5238 22.7086 26.8453 24.1128L26.8573 22.4856H24.0953V22.4796ZM0 18.6285V21.1175H3.74068V33.5265H6.70681V21.1175H10.4475V18.6285H0ZM20.907 33.5144V23.8898H18.079V29.1571C18.079 30.5553 17.2744 31.5979 15.9595 31.5979C14.9567 31.5979 14.1822 30.9591 14.1822 29.5248V23.8898H11.3061V29.5067C11.3061 32.7008 13.4977 33.7133 15.353 33.7133C17.4185 33.7133 18.1931 32.3754 18.2891 32.1825L18.7154 33.5205H20.907V33.5144ZM12.3509 22.1903H15.2149V19.9363H12.3509V22.1903ZM17.0102 22.1903H19.8743V19.9363H17.0102V22.1903ZM128.318 14.898L121.887 11.1735V18.6285L128.318 14.904V14.898ZM102.476 40.5174L97.0176 37.3534V43.6754L102.476 40.5174ZM170 18.6285L144.29 3.73052V14.904L150.72 11.1795V26.0835L144.29 22.359V33.5325L170 18.6345V18.6285ZM137.859 18.6285L144.29 22.353V14.904L137.859 18.6285Z" fill="white"/>
<path d="M6.46598 36.9688C7.04839 36.9688 7.58278 37.1315 8.02109 37.3906C9.07185 38.0114 9.51617 39.1143 9.51617 40.3015C9.51617 41.4888 9.05984 42.6579 8.02109 43.2486C7.56476 43.5198 6.98235 43.6704 6.46598 43.6704H3.66797V36.9688H6.46598ZM4.73073 37.7944V42.8508H6.17177C6.75418 42.8508 7.35461 42.6278 7.72688 42.2542C8.1772 41.8263 8.40537 41.1272 8.40537 40.2895C8.40537 39.3312 8.08114 38.596 7.49872 38.1801C7.09643 37.9029 6.60408 37.7884 6.17177 37.7884H4.73073V37.7944Z" fill="white"/>
<path d="M11.3902 41.5362C11.4082 42.5005 12.1227 42.9646 13.1434 42.9646C13.7559 42.9646 14.3563 42.7898 14.8126 42.5788L14.9927 43.3141C14.4704 43.5552 13.8219 43.742 13.0474 43.742C11.3001 43.742 10.3574 42.7777 10.3574 41.2168C10.3574 39.6559 11.3121 38.6133 12.8852 38.6133C14.3743 38.6133 15.2029 39.5595 15.2029 41.0179C15.2029 41.2469 15.1849 41.5061 15.1729 41.5362H11.3842H11.3902ZM11.4202 40.8251H14.2662C14.2662 40.0115 13.882 39.3907 12.9213 39.3907C12.1107 39.3907 11.5583 39.7764 11.4202 40.8251Z" fill="white"/>
<path d="M19.1954 38.6943H20.8766V39.3632L20.096 39.3753C20.3182 39.5501 20.5644 39.8635 20.5644 40.3998C20.5644 41.3219 19.8318 41.9427 18.3908 41.9427C17.9705 41.9427 17.5922 41.8944 17.274 41.792C17.1299 41.8884 17.0098 42.021 17.0158 42.2259C17.0278 42.6357 17.5322 42.702 18.2947 42.702H19.0513C20.036 42.702 20.7805 42.9913 20.7805 43.9194C20.7805 45.0946 19.5857 45.3779 18.3548 45.3779C17.2079 45.3779 16.0371 45.1368 16.0371 44.1304C16.0371 43.6723 16.2833 43.365 16.5895 43.154C16.3313 42.9913 16.1692 42.7502 16.1692 42.3766C16.1692 41.9668 16.3794 41.6474 16.6736 41.4545C16.3794 41.1954 16.2052 40.8157 16.2052 40.2974C16.2052 39.1704 17.0278 38.622 18.4088 38.622C18.667 38.622 18.9552 38.64 19.2014 38.7003M17.3521 43.4192C17.1419 43.5518 16.9978 43.7266 16.9978 43.9737C16.9978 44.498 17.6162 44.5884 18.3788 44.5884C19.0933 44.5884 19.7718 44.51 19.7718 43.9556C19.7718 43.5819 19.4656 43.4795 18.9492 43.4795H18.3668C18.0726 43.4795 17.7003 43.4795 17.346 43.4192M19.6817 36.8983C19.5676 37.6938 19.1353 38.0193 18.3548 38.0193C17.5742 38.0193 17.1419 37.6938 17.0278 36.8983L17.6222 36.832C17.7243 37.272 17.8984 37.513 18.3548 37.513C18.8111 37.513 18.9852 37.272 19.0873 36.832L19.6817 36.8983ZM17.2019 40.2913C17.2019 40.9121 17.7063 41.1652 18.3728 41.1652C19.1293 41.1652 19.5436 40.8518 19.5436 40.2913C19.5436 39.7007 19.0753 39.4115 18.3788 39.4115C17.6823 39.4115 17.1959 39.7007 17.1959 40.2913" fill="white"/>
<path d="M22.4976 41.5362C22.5156 42.5005 23.2301 42.9646 24.2508 42.9646C24.8633 42.9646 25.4637 42.7898 25.92 42.5788L26.1002 43.3141C25.5778 43.5552 24.9293 43.742 24.1548 43.742C22.4075 43.742 21.4648 42.7777 21.4648 41.2168C21.4648 39.6559 22.4195 38.6133 23.9927 38.6133C25.4817 38.6133 26.3103 39.5595 26.3103 41.0179C26.3103 41.2469 26.2923 41.5061 26.2803 41.5362H22.4916H22.4976ZM22.5276 40.8251H25.3736C25.3736 40.0115 24.9894 39.3907 24.0287 39.3907C23.2181 39.3907 22.6657 39.7764 22.5276 40.8251Z" fill="white"/>
<path d="M29.9602 39.6517C28.9094 39.501 28.3871 40.3387 28.3871 41.3633V43.6715H27.4023V38.6935H28.2129L28.297 39.7481C28.4951 39.1997 29.0595 38.5609 29.9962 38.6935L29.9602 39.6517Z" fill="white"/>
<path d="M31.889 42.6043C31.889 42.9297 32.0631 42.99 32.2733 42.99C32.4474 42.99 32.6095 42.9779 32.6816 42.9719L32.7116 43.6891C32.5135 43.7252 32.2793 43.7554 31.937 43.7554C31.2225 43.7554 30.9043 43.448 30.9043 42.779V36.668H31.889V42.6043Z" fill="white"/>
<path d="M34.6147 43.6775H33.63V39.4045H33.0176V38.6934H34.6087V43.6714L34.6147 43.6775ZM34.6628 37.4218C34.6628 37.7593 34.4526 37.9099 34.0984 37.9099C33.7441 37.9099 33.546 37.7593 33.546 37.4218C33.546 37.0843 33.7561 36.9336 34.0984 36.9336C34.4406 36.9336 34.6628 37.0963 34.6628 37.4218Z" fill="white"/>
<path d="M44.425 43.6765H43.3683V40.7595H39.8557V43.6765H38.793V36.9688H39.8557V39.9399H43.3683V36.9688H44.425V43.6765Z" fill="white"/>
<path d="M47.0854 43.6775H46.1007V39.4045H45.4883V38.6934H47.0794V43.6714L47.0854 43.6775ZM47.1335 37.4218C47.1335 37.7593 46.9233 37.9099 46.5691 37.9099C46.2148 37.9099 46.0167 37.7593 46.0167 37.4218C46.0167 37.0843 46.2268 36.9336 46.5691 36.9336C46.9113 36.9336 47.1335 37.0963 47.1335 37.4218Z" fill="white"/>
<path d="M51.9911 38.9643L51.817 39.6272C51.5888 39.5428 50.9944 39.3319 50.3219 39.3319C49.5594 39.3319 49.2652 39.6091 49.2652 39.9948C49.2652 40.5433 49.7695 40.5975 50.5441 40.8024C51.3727 41.0314 52.2133 41.2906 52.2133 42.297C52.2133 43.3035 51.3246 43.7615 50.2259 43.7615C49.3973 43.7615 48.6707 43.5205 48.2324 43.3336L48.4426 42.6647C48.7008 42.7792 49.3492 43.0504 50.1118 43.0504C50.8743 43.0504 51.1925 42.7611 51.1925 42.3814C51.1925 41.833 50.6221 41.7787 49.8836 41.5859C49.1091 41.3629 48.2504 41.1279 48.2504 40.0913C48.2504 39.0547 49.073 38.6328 50.1658 38.6328C50.8503 38.6328 51.5288 38.7955 51.9911 38.9763" fill="white"/>
<path d="M56.6317 38.9643L56.4576 39.6272C56.2295 39.5428 55.635 39.3319 54.9625 39.3319C54.2 39.3319 53.9058 39.6091 53.9058 39.9948C53.9058 40.5433 54.4102 40.5975 55.1847 40.8024C56.0133 41.0314 56.8539 41.2906 56.8539 42.297C56.8539 43.3035 55.9653 43.7615 54.8665 43.7615C54.0379 43.7615 53.3114 43.5205 52.873 43.3336L53.0832 42.6647C53.3414 42.7792 53.9899 43.0504 54.7524 43.0504C55.5149 43.0504 55.8332 42.7611 55.8332 42.3814C55.8332 41.833 55.2628 41.7787 54.5242 41.5859C53.7497 41.3629 52.8911 41.1279 52.8911 40.0913C52.8911 39.0547 53.7137 38.6328 54.8064 38.6328C55.4909 38.6328 56.1694 38.7955 56.6317 38.9763" fill="white"/>
<path d="M58.5464 41.5362C58.5644 42.5005 59.2789 42.9646 60.2997 42.9646C60.9121 42.9646 61.5125 42.7898 61.9689 42.5788L62.149 43.3141C61.6266 43.5552 60.9782 43.742 60.2036 43.742C58.4563 43.742 57.5137 42.7777 57.5137 41.2168C57.5137 39.6559 58.4684 38.6133 60.0415 38.6133C61.5306 38.6133 62.3591 39.5595 62.3591 41.0179C62.3591 41.2469 62.3411 41.5061 62.3291 41.5362H58.5404H58.5464ZM58.5764 40.8251H61.4225C61.4225 40.0115 61.0382 39.3907 60.0775 39.3907C59.2669 39.3907 58.7145 39.7764 58.5764 40.8251Z" fill="white"/>
<path d="M64.617 38.6922H65.992V39.4033H64.617V42.1997C64.617 42.8325 64.8272 43.0254 65.2835 43.0254C65.5297 43.0254 65.8479 42.947 65.98 42.9108L66.016 43.5919C65.7398 43.6943 65.3556 43.7546 65.0133 43.7546C64.1187 43.7546 63.6323 43.393 63.6323 42.2298V39.4033H62.9238V38.6922H63.6323L63.7764 37.2578H64.617V38.6922Z" fill="white"/>
<path d="M68.119 38.6922H69.494V39.4033H68.119V42.1997C68.119 42.8325 68.3291 43.0254 68.7855 43.0254C69.0317 43.0254 69.3499 42.947 69.482 42.9108L69.518 43.5919C69.2418 43.6943 68.8575 43.7546 68.5153 43.7546C67.6206 43.7546 67.1343 43.393 67.1343 42.2298V39.4033H66.4258V38.6922H67.1343L67.2784 37.2578H68.119V38.6922Z" fill="white"/>
<path d="M71.5522 43.6775H70.5675V39.4045H69.9551V38.6934H71.5462V43.6714L71.5522 43.6775ZM71.6003 37.4218C71.6003 37.7593 71.3901 37.9099 71.0359 37.9099C70.6816 37.9099 70.4835 37.7593 70.4835 37.4218C70.4835 37.0843 70.6936 36.9336 71.0359 36.9336C71.3781 36.9336 71.6003 37.0963 71.6003 37.4218Z" fill="white"/>
<path d="M75.5813 39.6517C74.5305 39.501 74.0081 40.3387 74.0081 41.3633V43.6715H73.0234V38.6935H73.834L73.9181 39.7481C74.1162 39.1997 74.6806 38.5609 75.6173 38.6935L75.5813 39.6517Z" fill="white"/>
<path d="M77.6401 43.6775H76.6554V39.4045H76.043V38.6934H77.6341V43.6714L77.6401 43.6775ZM77.6881 37.4218C77.6881 37.7593 77.478 37.9099 77.1237 37.9099C76.7695 37.9099 76.5713 37.7593 76.5713 37.4218C76.5713 37.0843 76.7815 36.9336 77.1237 36.9336C77.466 36.9336 77.6881 37.0963 77.6881 37.4218Z" fill="white"/>
<path d="M81.6692 39.6517C80.6184 39.501 80.096 40.3387 80.096 41.3633V43.6715H79.1113V38.6935H79.9219L80.006 39.7481C80.2041 39.1997 80.7685 38.5609 81.7052 38.6935L81.6692 39.6517Z" fill="white"/>
</g>
<defs>
<clipPath id="clip0_1842_410">
<rect width="170" height="56" fill="white"/>
</clipPath>
</defs>
</svg>
